<svg width="134" height="32" viewBox="0 0 134 32" fill="none" xmlns="http://www.w3.org/2000/svg">
<g id="Logo">
<path id="Rectangle 2" d="M61.0068 1C61.0068 0.447715 61.4546 0 62.0068 0H114.007C124.5 0 133.007 8.50659 133.007 19V31C133.007 31.5523 132.559 32 132.007 32H62.0068C61.4546 32 61.0068 31.5523 61.0068 31V1Z" fill="#1B1B1B"/>
<g id="Test">
<path d="M5.65695 24.0654V9.77835H0V5.64746H16.4972V9.77835H10.8666V24.0654H5.65695Z" fill="#1B1B1B"/>
<path d="M24.2348 24.3022C22.5509 24.3022 21.0775 23.9865 19.8145 23.355C18.5691 22.706 17.5956 21.829 16.894 20.7239C16.2099 19.6013 15.8678 18.3295 15.8678 16.9087C15.8678 15.4879 16.2011 14.225 16.8677 13.1199C17.5517 11.9973 18.4902 11.129 19.683 10.5151C20.8758 9.88359 22.2176 9.56786 23.7086 9.56786C25.1119 9.56786 26.3924 9.85728 27.5501 10.4361C28.7078 10.9974 29.6287 11.8306 30.3128 12.9357C30.9969 14.0408 31.3389 15.3827 31.3389 16.9614C31.3389 17.1368 31.3301 17.3385 31.3126 17.5665C31.2951 17.7945 31.2775 18.005 31.26 18.198H19.9724V15.5669H28.6025L26.7081 16.3036C26.7256 15.6546 26.6029 15.0932 26.3398 14.6196C26.0942 14.146 25.7434 13.7777 25.2873 13.5146C24.8488 13.2515 24.3313 13.1199 23.7349 13.1199C23.1385 13.1199 22.6123 13.2515 22.1562 13.5146C21.7177 13.7777 21.3757 14.1548 21.1301 14.646C20.8845 15.1196 20.7617 15.6809 20.7617 16.3299V17.0929C20.7617 17.7945 20.9021 18.3997 21.1827 18.9084C21.4809 19.4171 21.9019 19.8118 22.4457 20.0924C22.9894 20.3555 23.6384 20.4871 24.3927 20.4871C25.0943 20.4871 25.6907 20.3906 26.1819 20.1977C26.6906 19.9872 27.1905 19.6714 27.6816 19.2504L30.3128 21.9868C29.6287 22.7411 28.7867 23.3199 27.7869 23.7234C26.787 24.1093 25.603 24.3022 24.2348 24.3022Z" fill="#1B1B1B"/>
<path d="M38.8272 24.3022C37.6169 24.3022 36.4328 24.1619 35.2751 23.8813C34.135 23.6006 33.2141 23.2498 32.5124 22.8288L34.0122 19.4083C34.6787 19.8118 35.4593 20.1363 36.3539 20.3818C37.2485 20.6099 38.1255 20.7239 38.985 20.7239C39.827 20.7239 40.4059 20.6362 40.7216 20.4608C41.0549 20.2854 41.2215 20.0486 41.2215 19.7504C41.2215 19.4697 41.0636 19.268 40.7479 19.1452C40.4497 19.0049 40.0463 18.8996 39.5376 18.8295C39.0464 18.7593 38.5027 18.6804 37.9063 18.5927C37.3099 18.505 36.7047 18.3909 36.0908 18.2506C35.4944 18.0927 34.9419 17.8647 34.4332 17.5665C33.942 17.2508 33.5474 16.8298 33.2492 16.3036C32.951 15.7773 32.8019 15.1108 32.8019 14.3039C32.8019 13.3918 33.065 12.5849 33.5912 11.8833C34.135 11.1641 34.9243 10.6028 35.9592 10.1993C36.9941 9.77835 38.2571 9.56786 39.7481 9.56786C40.7479 9.56786 41.7565 9.6731 42.7739 9.88359C43.8088 10.0765 44.6771 10.3747 45.3787 10.7782L43.879 14.1723C43.1773 13.7689 42.4757 13.497 41.774 13.3567C41.0724 13.1988 40.4059 13.1199 39.7744 13.1199C38.9324 13.1199 38.336 13.2164 37.9852 13.4093C37.6519 13.6023 37.4853 13.8391 37.4853 14.1197C37.4853 14.4004 37.6344 14.6196 37.9326 14.7775C38.2308 14.9178 38.6255 15.0319 39.1166 15.1196C39.6253 15.1897 40.1778 15.2687 40.7742 15.3564C41.3706 15.4265 41.967 15.5405 42.5634 15.6984C43.1773 15.8563 43.7299 16.0931 44.221 16.4088C44.7297 16.707 45.1331 17.1192 45.4313 17.6455C45.7295 18.1541 45.8786 18.8119 45.8786 19.6188C45.8786 20.4959 45.6067 21.2852 45.063 21.9868C44.5367 22.6885 43.7474 23.2498 42.6949 23.6708C41.66 24.0917 40.3708 24.3022 38.8272 24.3022Z" fill="#1B1B1B"/>
<path d="M54.4002 24.3022C52.576 24.3022 51.1552 23.8549 50.1378 22.9604C49.1204 22.0482 48.6117 20.68 48.6117 18.8558V6.62098H53.6109V18.8032C53.6109 19.3118 53.7512 19.7153 54.0319 20.0135C54.3125 20.2941 54.6721 20.4345 55.1106 20.4345C55.707 20.4345 56.2157 20.2854 56.6367 19.9872L57.8733 23.4866C57.4523 23.7672 56.9349 23.969 56.321 24.0917C55.707 24.2321 55.0668 24.3022 54.4002 24.3022ZM46.5331 14.0671V10.3309H56.8735V14.0671H46.5331Z" fill="#1B1B1B"/>
</g>
<g id="Blog">
<path d="M64.9105 24.0655V5.64756H74.33C76.7506 5.64756 78.5574 6.09485 79.7501 6.98944C80.9429 7.86649 81.5393 9.02419 81.5393 10.4625C81.5393 11.4098 81.285 12.2429 80.7763 12.9621C80.2851 13.6638 79.5835 14.2251 78.6714 14.6461C77.7768 15.0495 76.7068 15.2512 75.4614 15.2512L75.9876 13.9883C77.2856 13.9883 78.417 14.19 79.3818 14.5934C80.3465 14.9793 81.092 15.5494 81.6183 16.3037C82.162 17.0404 82.4339 17.9437 82.4339 19.0137C82.4339 20.61 81.7849 21.8554 80.4869 22.75C79.2064 23.627 77.3295 24.0655 74.8562 24.0655H64.9105ZM70.0676 20.303H74.4352C75.3298 20.303 76.0052 20.1539 76.4612 19.8557C76.9348 19.54 77.1716 19.0664 77.1716 18.4349C77.1716 17.8034 76.9348 17.3386 76.4612 17.0404C76.0052 16.7247 75.3298 16.5668 74.4352 16.5668H69.6992V12.9621H73.6459C74.5229 12.9621 75.1807 12.813 75.6193 12.5148C76.0578 12.2166 76.277 11.7693 76.277 11.1729C76.277 10.5766 76.0578 10.138 75.6193 9.85738C75.1807 9.55918 74.5229 9.41009 73.6459 9.41009H70.0676V20.303Z" fill="white"/>
<path d="M84.8955 24.0655V4.54248H89.8946V24.0655H84.8955Z" fill="white"/>
<path d="M100.3 24.3023C98.739 24.3023 97.3533 23.9866 96.143 23.3551C94.9326 22.7236 93.9767 21.8554 93.275 20.7503C92.5909 19.6277 92.2489 18.3472 92.2489 16.9088C92.2489 15.4705 92.5909 14.1988 93.275 13.0937C93.9767 11.9886 94.9326 11.1291 96.143 10.5152C97.3533 9.88369 98.739 9.56796 100.3 9.56796C101.861 9.56796 103.247 9.88369 104.457 10.5152C105.685 11.1291 106.641 11.9886 107.325 13.0937C108.009 14.1988 108.351 15.4705 108.351 16.9088C108.351 18.3472 108.009 19.6277 107.325 20.7503C106.641 21.8554 105.685 22.7236 104.457 23.3551C103.247 23.9866 101.861 24.3023 100.3 24.3023ZM100.3 20.3293C100.879 20.3293 101.388 20.1978 101.826 19.9346C102.282 19.6715 102.642 19.2856 102.905 18.7769C103.168 18.2507 103.3 17.628 103.3 16.9088C103.3 16.1897 103.168 15.5845 102.905 15.0933C102.642 14.5847 102.282 14.1988 101.826 13.9356C101.388 13.6725 100.879 13.541 100.3 13.541C99.7388 13.541 99.2302 13.6725 98.7741 13.9356C98.3356 14.1988 97.976 14.5847 97.6953 15.0933C97.4322 15.5845 97.3007 16.1897 97.3007 16.9088C97.3007 17.628 97.4322 18.2507 97.6953 18.7769C97.976 19.2856 98.3356 19.6715 98.7741 19.9346C99.2302 20.1978 99.7388 20.3293 100.3 20.3293Z" fill="white"/>
<path d="M117.64 29.4067C116.272 29.4067 114.965 29.2489 113.719 28.9331C112.492 28.6174 111.439 28.1526 110.562 27.5386L112.377 24.0392C112.974 24.5128 113.711 24.8812 114.588 25.1443C115.482 25.4249 116.351 25.5653 117.192 25.5653C118.543 25.5653 119.517 25.2671 120.113 24.6707C120.709 24.0918 121.008 23.2411 121.008 22.1185V20.4346L121.271 16.4352L121.244 12.4096V9.80476H126.007V21.4607C126.007 24.162 125.279 26.1617 123.823 27.4597C122.367 28.7577 120.306 29.4067 117.64 29.4067ZM116.771 23.3288C115.509 23.3288 114.342 23.0482 113.272 22.4868C112.22 21.908 111.369 21.1099 110.72 20.0925C110.088 19.0576 109.773 17.8385 109.773 16.4352C109.773 15.032 110.088 13.8216 110.72 12.8043C111.369 11.7693 112.22 10.9712 113.272 10.4099C114.342 9.84861 115.509 9.56796 116.771 9.56796C117.982 9.56796 119.017 9.81353 119.876 10.3047C120.736 10.7783 121.385 11.5238 121.823 12.5411C122.279 13.5585 122.507 14.8565 122.507 16.4352C122.507 18.0139 122.279 19.3119 121.823 20.3293C121.385 21.3467 120.736 22.1009 119.876 22.5921C119.017 23.0832 117.982 23.3288 116.771 23.3288ZM117.956 19.3558C118.552 19.3558 119.078 19.233 119.534 18.9874C120.008 18.7419 120.376 18.3998 120.639 17.9613C120.92 17.5228 121.06 17.0141 121.06 16.4352C121.06 15.8564 120.92 15.3477 120.639 14.9092C120.376 14.4706 120.008 14.1374 119.534 13.9093C119.078 13.6638 118.552 13.541 117.956 13.541C117.359 13.541 116.824 13.6638 116.351 13.9093C115.877 14.1374 115.5 14.4706 115.219 14.9092C114.956 15.3477 114.824 15.8564 114.824 16.4352C114.824 17.0141 114.956 17.5228 115.219 17.9613C115.5 18.3998 115.877 18.7419 116.351 18.9874C116.824 19.233 117.359 19.3558 117.956 19.3558Z" fill="white"/>
</g>
</g>
</svg>
